<svg xmlns="http://www.w3.org/2000/svg" width="64" height="64" viewBox="0 0 64 64" fill="none">
  <defs>
    <linearGradient id="g" x1="8" y1="8" x2="56" y2="56" gradientUnits="userSpaceOnUse">
      <stop stop-color="#6366F1"/>
      <stop offset="1" stop-color="#4338CA"/>
    </linearGradient>
  </defs>
  <circle cx="32" cy="32" r="30" fill="url(#g)"/>
  <circle cx="32" cy="32" r="29" stroke="#E3E5FF" stroke-opacity=".7" stroke-width="2"/>
  <path d="M32 16c-2 4-5 7-9 8 2 2 4 3 7 4-3 1-5 3-6 5 3 0 6 0 8-1-1 3-1 6 0 9 2-2 3-4 4-7 1 3 2 5 4 7 1-3 1-6 0-9 2 1 5 1 8 1-1-2-3-4-6-5 3-1 5-2 7-4-4-1-7-4-9-8Z" fill="#EEF2FF"/>
  <text x="32" y="52" text-anchor="middle" font-family="Inter, Arial, sans-serif" font-size="10" font-weight="800" fill="#F5F7FF">HIPAA</text>
</svg>
